HIERARCHY
ROOT reference
{
  OFFSET 0 0 0
  CHANNELS 6 Xposition Yposition Zposition Zrotation Xrotation Yrotation
  JOINT Hips
  {
    OFFSET 346.547 88.4868 223.89
    CHANNELS 3 Zrotation Xrotation Yrotation
    JOINT RightUpLeg
    {
      OFFSET -9.27468 -1.51611 -0.00175448
      CHANNELS 3 Zrotation Xrotation Yrotation
      JOINT RightLeg
      {
        OFFSET -0.00464511 -41.8738 0.0184652
        CHANNELS 3 Zrotation Xrotation Yrotation
        JOINT RightFoot
        {
          OFFSET -0.626239 -42.3044 -0.171503
          CHANNELS 3 Zrotation Xrotation Yrotation
          End Site
          {
            OFFSET 0 -7.69 17.5
          }
        }
      }
    }
    JOINT LeftUpLeg
    {
      OFFSET 9.30083 -1.68454 -0.0454748
      CHANNELS 3 Zrotation Xrotation Yrotation
      JOINT LeftLeg
      {
        OFFSET 0.0692631 -41.8513 -0.097029
        CHANNELS 3 Zrotation Xrotation Yrotation
        JOINT LeftFoot
        {
          OFFSET 0.520945 -41.523 0.446349
          CHANNELS 3 Zrotation Xrotation Yrotation
          End Site
          {
            OFFSET 0 -7.69 17.5
          }
        }
      }
    }
    JOINT Spine
    {
      OFFSET 0.0770133 14.2992 0.0590021
      CHANNELS 3 Zrotation Xrotation Yrotation
      JOINT Spine1
      {
        OFFSET 0.0471461 9.71665 0.020973
        CHANNELS 3 Zrotation Xrotation Yrotation
        JOINT Spine2
        {
          OFFSET 0.051283 10.117 0.000913966
          CHANNELS 3 Zrotation Xrotation Yrotation
          JOINT Spine3
          {
            OFFSET 0.0447963 9.71088 0.00221408
            CHANNELS 3 Zrotation Xrotation Yrotation
            JOINT Neck
            {
              OFFSET 0.115655 10.3749 0.0448519
              CHANNELS 3 Zrotation Xrotation Yrotation
              JOINT Head
              {
                OFFSET 0.0937003 9.47807 0.0215077
                CHANNELS 3 Zrotation Xrotation Yrotation
                End Site
                {
                  OFFSET 0 15.95 0
                }
              }
            }
            JOINT RightShoulder
            {
              OFFSET -3.17023 6.91072 -0.0050072
              CHANNELS 3 Zrotation Xrotation Yrotation
              JOINT RightArm
              {
                OFFSET -12.7573 0.00694711 0.0313031
                CHANNELS 3 Zrotation Xrotation Yrotation
                JOINT RightForeArm
                {
                  OFFSET -26.5152 -0.0619338 -0.0331286
                  CHANNELS 3 Zrotation Xrotation Yrotation
                  JOINT RightHand
                  {
                    OFFSET -25.9971 0.0398378 -0.0269922
                    CHANNELS 3 Zrotation Xrotation Yrotation
                    JOINT RightHandThumb1
                    {
                      OFFSET -2.48905 0.190105 3.12053
                      CHANNELS 3 Zrotation Xrotation Yrotation
                      JOINT RightHandThumb2
                      {
                        OFFSET -3.68274 0 0
                        CHANNELS 3 Zrotation Xrotation Yrotation
                        JOINT RightHandThumb3
                        {
                          OFFSET -2.55832 0 0
                          CHANNELS 3 Zrotation Xrotation Yrotation
                          End Site
                          {
                            OFFSET -2.194 0 0
                          }
                        }
                      }
                    }
                    JOINT RightInHandIndex
                    {
                      OFFSET -3.22368 0.508421 1.97842
                      CHANNELS 3 Zrotation Xrotation Yrotation
                      JOINT RightHandIndex1
                      {
                        OFFSET -5.21684 -0.091368 0.999158
                        CHANNELS 3 Zrotation Xrotation Yrotation
                        JOINT RightHandIndex2
                        {
                          OFFSET -3.61937 0 0
                          CHANNELS 3 Zrotation Xrotation Yrotation
                          JOINT RightHandIndex3
                          {
                            OFFSET -2.0521 0 0
                            CHANNELS 3 Zrotation Xrotation Yrotation
                            End Site
                            {
                              OFFSET -1.805 0 0
                            }
                          }
                        }
                      }
                    }
                    JOINT RightInHandMiddle
                    {
                      OFFSET -3.38211 0.517263 0.756737
                      CHANNELS 3 Zrotation Xrotation Yrotation
                      JOINT RightHandMiddle1
                      {
                        OFFSET -5.17411 -0.084 0.313895
                        CHANNELS 3 Zrotation Xrotation Yrotation
                        JOINT RightHandMiddle2
                        {
                          OFFSET -3.94947 0 0
                          CHANNELS 3 Zrotation Xrotation Yrotation
                          JOINT RightHandMiddle3
                          {
                            OFFSET -2.47579 0 0
                            CHANNELS 3 Zrotation Xrotation Yrotation
                            End Site
                            {
                              OFFSET -1.975 0 0
                            }
                          }
                        }
                      }
                    }
                    JOINT RightInHandRing
                    {
                      OFFSET -3.36516 0.537895 -0.128947
                      CHANNELS 3 Zrotation Xrotation Yrotation
                      JOINT RightHandRing1
                      {
                        OFFSET -4.63474 -0.022105 -0.478947
                        CHANNELS 3 Zrotation Xrotation Yrotation
                        JOINT RightHandRing2
                        {
                          OFFSET -3.44238 0 0
                          CHANNELS 3 Zrotation Xrotation Yrotation
                          JOINT RightHandRing3
                          {
                            OFFSET -2.3881 0 0
                            CHANNELS 3 Zrotation Xrotation Yrotation
                            End Site
                            {
                              OFFSET -1.857 0 0
                            }
                          }
                        }
                      }
                    }
                    JOINT RightInHandPinky
                    {
                      OFFSET -3.16105 0.469368 -1.20179
                      CHANNELS 3 Zrotation Xrotation Yrotation
                      JOINT RightHandPinky1
                      {
                        OFFSET -4.14105 -0.022105 -1.09053
                        CHANNELS 3 Zrotation Xrotation Yrotation
                        JOINT RightHandPinky2
                        {
                          OFFSET -2.75653 0 0
                          CHANNELS 3 Zrotation Xrotation Yrotation
                          JOINT RightHandPinky3
                          {
                            OFFSET -1.74189 0 0
                            CHANNELS 3 Zrotation Xrotation Yrotation
                            End Site
                            {
                              OFFSET -1.645 0 0
                            }
                          }
                        }
                      }
                    }
                  }
                }
              }
            }
            JOINT LeftShoulder
            {
              OFFSET 3.25178 6.92057 -0.0384945
              CHANNELS 3 Zrotation Xrotation Yrotation
              JOINT LeftArm
              {
                OFFSET 12.8462 -0.0383255 -0.0637898
                CHANNELS 3 Zrotation Xrotation Yrotation
                JOINT LeftForeArm
                {
                  OFFSET 26.4888 -0.0608964 -0.0673835
                  CHANNELS 3 Zrotation Xrotation Yrotation
                  JOINT LeftHand
                  {
                    OFFSET 25.9932 -0.0402352 -0.0274148
                    CHANNELS 3 Zrotation Xrotation Yrotation
                    JOINT LeftHandThumb1
                    {
                      OFFSET 2.48905 0.190105 3.12053
                      CHANNELS 3 Zrotation Xrotation Yrotation
                      JOINT LeftHandThumb2
                      {
                        OFFSET 3.68274 0 0
                        CHANNELS 3 Zrotation Xrotation Yrotation
                        JOINT LeftHandThumb3
                        {
                          OFFSET 2.55832 0 0
                          CHANNELS 3 Zrotation Xrotation Yrotation
                          End Site
                          {
                            OFFSET 2.194 0 0
                          }
                        }
                      }
                    }
                    JOINT LeftInHandIndex
                    {
                      OFFSET 3.22368 0.508421 1.97842
                      CHANNELS 3 Zrotation Xrotation Yrotation
                      JOINT LeftHandIndex1
                      {
                        OFFSET 5.21684 -0.091368 0.999158
                        CHANNELS 3 Zrotation Xrotation Yrotation
                        JOINT LeftHandIndex2
                        {
                          OFFSET 3.61937 0 0
                          CHANNELS 3 Zrotation Xrotation Yrotation
                          JOINT LeftHandIndex3
                          {
                            OFFSET 2.0521 0 0
                            CHANNELS 3 Zrotation Xrotation Yrotation
                            End Site
                            {
                              OFFSET 1.805 0 0
                            }
                          }
                        }
                      }
                    }
                    JOINT LeftInHandMiddle
                    {
                      OFFSET 3.38211 0.517263 0.756737
                      CHANNELS 3 Zrotation Xrotation Yrotation
                      JOINT LeftHandMiddle1
                      {
                        OFFSET 5.17411 -0.084 0.313895
                        CHANNELS 3 Zrotation Xrotation Yrotation
                        JOINT LeftHandMiddle2
                        {
                          OFFSET 3.94947 0 0
                          CHANNELS 3 Zrotation Xrotation Yrotation
                          JOINT LeftHandMiddle3
                          {
                            OFFSET 2.47579 0 0
                            CHANNELS 3 Zrotation Xrotation Yrotation
                            End Site
                            {
                              OFFSET 1.975 0 0
                            }
                          }
                        }
                      }
                    }
                    JOINT LeftInHandRing
                    {
                      OFFSET 3.36516 0.537895 -0.128947
                      CHANNELS 3 Zrotation Xrotation Yrotation
                      JOINT LeftHandRing1
                      {
                        OFFSET 4.63474 -0.022105 -0.478947
                        CHANNELS 3 Zrotation Xrotation Yrotation
                        JOINT LeftHandRing2
                        {
                          OFFSET 3.44238 0 0
                          CHANNELS 3 Zrotation Xrotation Yrotation
                          JOINT LeftHandRing3
                          {
                            OFFSET 2.3881 0 0
                            CHANNELS 3 Zrotation Xrotation Yrotation
                            End Site
                            {
                              OFFSET 1.857 0 0
                            }
                          }
                        }
                      }
                    }
                    JOINT LeftInHandPinky
                    {
                      OFFSET 3.16105 0.469368 -1.20179
                      CHANNELS 3 Zrotation Xrotation Yrotation
                      JOINT LeftHandPinky1
                      {
                        OFFSET 4.14105 -0.022105 -1.09053
                        CHANNELS 3 Zrotation Xrotation Yrotation
                        JOINT LeftHandPinky2
                        {
                          OFFSET 2.75653 0 0
                          CHANNELS 3 Zrotation Xrotation Yrotation
                          JOINT LeftHandPinky3
                          {
                            OFFSET 1.74189 0 0
                            CHANNELS 3 Zrotation Xrotation Yrotation
                            End Site
                            {
                              OFFSET 1.645 0 0
                            }
                          }
                        }
                      }
                    }
                  }
                }
              }
            }
          }
        }
      }
    }
  }
}
MOTION
Frames: 2
Frame Time: 0.00833333
1.500000000000000000e+02 0.000000000000000000e+00 0.000000000000000000e+00 0.000000000000000000e+00 0.000000000000000000e+00 -0.000000000000000000e+00 2.361600638721330150e-02 8.968891870786780893e-03 5.030921040554382079e-02 1.682485525003709140e-02 -3.126973977349539746e-02 -1.448688860524962596e-01 -5.430713613738046008e-02 -1.228636188633511206e-02 1.226592491341663427e-01 -3.204024787565709024e-03 2.653032575458635651e-03 -5.401054585622294332e-03 1.187001049943000111e-02 -3.938966416193593473e-02 -3.755182279821979441e-02 2.063550042842797125e-02 5.640979019908496685e-03 -2.361621225635221130e-02 -1.187080443142323784e-02 3.830401885865961087e-03 8.699764554125724927e-03 9.641021503031673226e-03 1.594110219516109211e-03 1.012446929750647311e-03 2.405209640049618940e-03 1.557514970656317119e-03 -1.732704235677396385e-05 3.926556346320856858e-03 1.440555883485250934e-03 8.718410010644507633e-05 -2.620038314399725536e-04 5.657117394708650665e-04 -7.605164660992015874e-04 -1.308342513863601075e-03 1.489865062473365179e-03 1.226896695760380449e-02 7.486819202406627509e-03 4.039481824938644453e-03 -4.091854123435765406e-02 5.098286965850408817e-03 -5.666933956628533199e-03 -7.221889990080508637e-02 3.684049118903860026e-02 7.523692443729718994e-03 3.527328628725493603e-02 2.678242916615126631e-03 2.706757662517433015e-03 3.176353807937226485e-03 -1.762041331890011955e-02 1.003705402027029181e-01 -1.412598967820438527e-02 0.000000000000000000e+00 0.000000000000000000e+00 0.000000000000000000e+00 -9.191998613591969394e-16 -1.193093914926756545e-15 0.000000000000000000e+00 1.308945027578571343e-15 2.941564919973897696e-15 0.000000000000000000e+00 -8.839979097238570992e-15 -9.737429273873188988e-16 7.917846697986445032e-16 0.000000000000000000e+00 0.000000000000000000e+00 0.000000000000000000e+00 0.000000000000000000e+00 1.257432084212959610e-15 -6.937052053428261906e-16 0.000000000000000000e+00 2.932358559486550601e-15 1.159739261138755744e-15 -8.839979097238570992e-15 -9.737429273873188988e-16 7.917846697986445032e-16 0.000000000000000000e+00 2.128407371606909701e-16 2.151077151282509362e-16 0.000000000000000000e+00 -1.677676323828864347e-15 6.300570167288659542e-16 0.000000000000000000e+00 2.526288461307607018e-16 -1.261580194388736184e-15 -8.839979097238570992e-15 -9.737429273873188988e-16 7.917846697986445032e-16 0.000000000000000000e+00 0.000000000000000000e+00 0.000000000000000000e+00 0.000000000000000000e+00 4.216515597663081644e-16 7.625219421750289066e-16 0.000000000000000000e+00 6.577443297129547411e-16 4.729898733602295641e-17 -8.839979097238570992e-15 -9.737429273873188988e-16 7.917846697986445032e-16 0.000000000000000000e+00 0.000000000000000000e+00 0.000000000000000000e+00 0.000000000000000000e+00 9.867950197530006401e-16 -3.840426246693899553e-17 0.000000000000000000e+00 -2.573974821885538308e-16 2.941020491614071459e-16 -3.267491867221622437e-02 -7.217421842066330633e-03 -9.148879035984608388e-02 -8.888922529886722880e-04 -1.672471068701659840e-03 3.247008079492182120e-02 8.711541986164667017e-03 -2.386509800096645040e-02 -9.032290939087281312e-02 -2.582510951842482277e-02 -9.179804866678395459e-02 1.662822962595840726e-01 0.000000000000000000e+00 0.000000000000000000e+00 0.000000000000000000e+00 -7.976440069451859887e-16 3.924063500759744709e-16 0.000000000000000000e+00 -2.971051795554972424e-15 -1.681073940102810665e-15 0.000000000000000000e+00 2.006786159723891896e-15 3.813704260491443233e-16 -9.247564797147436621e-16 0.000000000000000000e+00 0.000000000000000000e+00 0.000000000000000000e+00 0.000000000000000000e+00 -1.317333872194344742e-15 -1.502861487814819850e-15 0.000000000000000000e+00 5.431957353433489578e-16 1.436707057971500947e-15 2.006786159723891896e-15 3.813704260491443233e-16 -9.247564797147436621e-16 0.000000000000000000e+00 -2.465645914305266852e-15 1.435037634135458714e-15 0.000000000000000000e+00 -1.317098282599527581e-15 2.507136137871616453e-15 0.000000000000000000e+00 -8.107677662732419785e-16 1.223661187261230176e-15 2.006786159723891896e-15 3.813704260491443233e-16 -9.247564797147436621e-16 0.000000000000000000e+00 0.000000000000000000e+00 0.000000000000000000e+00 0.000000000000000000e+00 -2.421862897355425407e-16 -1.073843526436627991e-15 0.000000000000000000e+00 7.902188571018868079e-16 5.985471933401626460e-16 2.006786159723891896e-15 3.813704260491443233e-16 -9.247564797147436621e-16 0.000000000000000000e+00 0.000000000000000000e+00 0.000000000000000000e+00 0.000000000000000000e+00 3.610358247648811982e-16 2.877994457833081270e-16 0.000000000000000000e+00 -5.906914628156730182e-17 3.540013679841951656e-16
1.500000000000000000e+02 0.000000000000000000e+00 0.000000000000000000e+00 0.000000000000000000e+00 0.000000000000000000e+00 -0.000000000000000000e+00 1.310816171868738056e-02 1.932043919979266680e-02 4.437910548500261648e-02 -1.365888403561580852e-02 -2.493925907052170488e-02 -1.560638955100379470e-02 1.917798879630383535e-02 4.800629151195948824e-03 -4.006986910834894888e-02 2.068169121996399004e-03 -3.079758862515077304e-03 6.192790819283180027e-04 1.334442707902841647e-02 -2.562817237880000293e-02 -3.459779062208472034e-02 4.312293076733290757e-03 6.755183695268998298e-03 -4.475569092252612222e-03 -1.197830199252082270e-03 -5.208942036450097540e-03 -2.303200372382151195e-03 1.304195222913746496e-02 6.738354518115333841e-03 -9.945189121316496891e-03 3.131179244792809714e-03 2.495766132265114616e-03 -2.912551141703564883e-03 5.143269378336709843e-03 3.718295541360446856e-03 -4.707443301289895334e-03 1.370318018614618020e-04 -3.467929796479530462e-04 2.833385546097910387e-04 -3.700589727658243127e-04 -3.423321648229676103e-03 2.870558902514797409e-02 5.974690383808313639e-03 1.415569048909198074e-02 -6.548957033667809902e-02 2.338926035637509289e-03 -5.866615019448675680e-03 -6.634912207890121538e-03 -3.255543646753330383e-02 9.258240850578891221e-03 -3.807082579676195760e-02 -1.235461490703462437e-02 -1.596470097668170954e-02 7.710295916695975894e-03 -1.575349380289467471e-02 7.194199383053631602e-02 -7.376804480763872983e-03 0.000000000000000000e+00 0.000000000000000000e+00 0.000000000000000000e+00 2.066553205236643704e-17 -4.752421457502857211e-16 0.000000000000000000e+00 -1.863314016058510884e-15 2.899892310715415836e-15 0.000000000000000000e+00 -2.847002492136289625e-15 4.215913090723724333e-17 -1.490457293623134338e-17 0.000000000000000000e+00 0.000000000000000000e+00 0.000000000000000000e+00 0.000000000000000000e+00 3.596811158105186924e-16 2.694152328259601050e-16 0.000000000000000000e+00 -1.308506403951997590e-15 3.069343299991968896e-16 -2.847002492136289625e-15 4.215913090723724333e-17 -1.490457293623134338e-17 0.000000000000000000e+00 7.838819161646802356e-16 -1.990396364034407601e-16 0.000000000000000000e+00 5.635229110757890449e-16 -3.425008967862300545e-16 0.000000000000000000e+00 -1.514395502120026742e-15 4.515045585671996121e-17 -2.847002492136289625e-15 4.215913090723724333e-17 -1.490457293623134338e-17 0.000000000000000000e+00 0.000000000000000000e+00 0.000000000000000000e+00 0.000000000000000000e+00 -8.964668069633266195e-16 -2.320439014809186995e-17 0.000000000000000000e+00 1.003581249953027131e-16 5.412295107858451001e-16 -2.847002492136289625e-15 4.215913090723724333e-17 -1.490457293623134338e-17 0.000000000000000000e+00 0.000000000000000000e+00 0.000000000000000000e+00 0.000000000000000000e+00 2.124819508758297113e-16 9.109568815321210996e-17 0.000000000000000000e+00 -2.368065807582574120e-16 4.901188839508774819e-16 -3.936679265765819294e-03 -1.302385804258959431e-02 -2.256408316151411325e-02 -7.976665231338274029e-03 -1.970908521969454152e-03 -3.374595915020102855e-03 1.868991411725910365e-02 -5.701597649879571600e-02 -2.285684999298868147e-01 9.975597864369118925e-03 -7.400491873751585681e-02 1.355218646239872982e-01 0.000000000000000000e+00 0.000000000000000000e+00 0.000000000000000000e+00 -5.929285687000336628e-16 2.254993288900063418e-15 0.000000000000000000e+00 1.092679520936165223e-15 3.668729851947155613e-15 0.000000000000000000e+00 -1.509746050242884800e-15 -5.938709111675617259e-16 1.530092159453082326e-16 0.000000000000000000e+00 0.000000000000000000e+00 0.000000000000000000e+00 0.000000000000000000e+00 1.402476846955448172e-15 7.835938551521921485e-16 0.000000000000000000e+00 4.212190945433866837e-16 -9.493672362067412218e-16 -1.509746050242884800e-15 -5.938709111675617259e-16 1.530092159453082326e-16 0.000000000000000000e+00 -3.711963155808289856e-16 6.758785773020285858e-17 0.000000000000000000e+00 1.287765298662246745e-16 -8.376678795636134367e-16 0.000000000000000000e+00 7.898782393706587503e-16 -2.337827603779992890e-16 -1.509746050242884800e-15 -5.938709111675617259e-16 1.530092159453082326e-16 0.000000000000000000e+00 0.000000000000000000e+00 0.000000000000000000e+00 0.000000000000000000e+00 -3.833129230199892786e-16 -5.995395112870468210e-17 0.000000000000000000e+00 5.880279764420621714e-16 8.681415380995422369e-16 -1.509746050242884800e-15 -5.938709111675617259e-16 1.530092159453082326e-16 0.000000000000000000e+00 0.000000000000000000e+00 0.000000000000000000e+00 0.000000000000000000e+00 -7.704077428785293258e-17 -4.674789626846363904e-17 0.000000000000000000e+00 -4.371436174795809558e-16 -1.327181014047631567e-16
